<?xml version="1.0" standalone="no"?>
<!DOCTYPE svg PUBLIC "-//W3C//DTD SVG 20010904//EN">
<svg version="1.0" xmlns="http://www.w3.org/2000/svg"
 width="144.000000pt" height="144.000000pt" viewBox="0 0 144.000000 144.000000"
 preserveAspectRatio="xMidYMid meet">

<g transform="translate(0.000000,144.000000) scale(0.100000,-0.100000)"
fill="#000000" stroke="none">
<path d="M585 1396 c-254 -59 -442 -228 -522 -471 -23 -69 -27 -98 -27 -205
-1 -104 3 -138 22 -200 60 -192 184 -336 367 -425 203 -99 396 -98 605 2 79
38 108 59 181 132 73 73 94 102 132 181 98 204 100 398 8 595 -88 186 -236
316 -426 375 -90 28 -256 35 -340 16z m279 -331 c103 -59 184 -111 179 -116
-4 -4 -48 -31 -97 -59 l-88 -51 -199 113 c-109 62 -198 115 -199 118 0 13 177
109 195 106 12 -1 105 -51 209 -111z m-214 -353 l0 -228 -94 -44 -95 -45 -5
29 c-3 16 -6 112 -6 215 l0 187 98 56 c53 31 98 57 100 57 1 1 2 -102 2 -227z
m412 106 l0 -103 -103 -62 -103 -62 -60 35 c-34 19 -76 42 -93 51 -18 9 -33
19 -33 22 0 7 384 230 388 226 2 -2 4 -50 4 -107z m-117 -285 c46 -27 83 -52
82 -57 -2 -7 -372 -226 -383 -226 -1 0 -46 25 -99 56 l-97 57 149 77 c81 42
171 91 198 108 28 17 53 31 58 31 4 1 45 -20 92 -46z"/>
</g>
</svg>
