
<svg width="400" height="400" viewBox="0 0 400 400" fill="none" xmlns="http://www.w3.org/2000/svg">
    <g clip-path="url(#clip0_28_876)">
        <path d="M0.0128009 202.385C0.00959869 202.209 0.00799758 202.033 0.00639647 201.857C-0.0400357 197.851 0.193726 193.809 0.478723 189.816C0.795743 185.375 0.883804 180.916 1.55947 176.5C1.83326 174.713 1.8861 172.891 2.1807 171.107C2.71707 167.875 3.34791 164.658 3.96113 161.44C5.28845 154.472 7.03846 147.609 9.13591 140.833C16.3521 117.52 27.4494 96.2234 42.4293 76.9589C55.3967 60.2833 70.6617 46.0575 88.1474 34.2077C105.042 22.7582 123.276 14.1266 142.82 8.27776C151.132 5.79124 159.544 3.7098 168.164 2.565C171.981 2.05745 175.79 1.48586 179.603 0.94148C180.687 0.84061 181.771 0.741341 182.853 0.640472C182.944 0.629264 183.035 0.621258 183.128 0.613253C184.422 0.510782 185.716 0.409912 187.009 0.307441C187.211 0.29143 187.411 0.275419 187.613 0.259408C188.247 0.259408 188.879 0.259408 189.514 0.261009C191.344 0.180954 193.172 0.0992971 195.002 0.0192417C198.302 0.0112361 201.603 0.00483171 204.903 -0.00317383C206.626 0.0704771 208.349 0.142527 210.072 0.216178C210.602 0.208172 211.13 0.200167 211.66 0.193762C211.967 0.211375 212.275 0.230588 212.582 0.2482C213.772 0.337862 214.96 0.429125 216.15 0.518787C216.348 0.531596 216.547 0.542804 216.745 0.555613C217.826 0.651679 218.907 0.747746 219.986 0.845413C223.01 1.26971 226.036 1.67639 229.058 2.1215C232.242 2.58902 235.446 2.97008 238.597 3.61053C243.026 4.51035 247.435 5.52545 251.809 6.65423C259.556 8.65242 267.121 11.219 274.55 14.1971C291.981 21.1827 308.12 30.4259 322.934 41.9587C344.989 59.1289 362.685 80.0202 376.019 104.584C385.699 122.418 392.491 141.307 396.378 161.228C396.775 163.262 396.985 165.33 397.328 167.373C397.606 169.035 398.023 170.677 398.256 172.343C399.217 179.209 399.878 186.103 399.97 193.042C399.981 197.213 399.992 201.383 400.003 205.553C399.795 209.491 399.598 213.429 399.368 217.366C399.321 218.153 399.118 218.929 399.042 219.715C398.911 221.076 398.886 222.45 398.703 223.804C398.45 225.684 398.08 227.548 397.787 229.424C397.313 232.462 396.964 235.523 396.38 238.539C394.835 246.499 392.79 254.334 390.241 262.034C378.87 296.362 359.734 325.613 332.67 349.599C309.256 370.351 282.368 384.762 252.158 392.899C246.513 394.42 240.752 395.528 235.022 396.716C232.282 397.285 229.495 397.629 226.718 398.007C224.155 398.356 221.581 398.612 219.009 398.91C217.933 399.011 216.857 399.11 215.781 399.211L215.801 399.235C214.055 399.339 212.31 399.444 210.565 399.548C208.684 399.669 206.804 399.79 204.923 399.91C202.149 399.917 199.376 399.923 196.603 399.931C194.712 399.814 192.823 399.699 190.932 399.582C189.297 399.494 187.663 399.404 186.028 399.316C185.833 399.305 185.637 399.296 185.442 399.284C184.358 399.19 183.272 399.095 182.188 399.001C181.99 398.98 181.791 398.959 181.593 398.937C180.932 398.86 180.272 398.782 179.611 398.705C178.351 398.589 177.089 398.487 175.83 398.357C173.892 398.157 171.938 398.035 170.02 397.704C166.861 397.158 163.71 396.55 160.588 395.828C154.797 394.489 148.961 393.28 143.272 391.586C137.566 389.887 131.957 387.812 126.406 385.643C105.662 377.533 86.9161 366.068 69.9956 351.615C56.5863 340.159 44.9591 327.087 35.0114 312.525C22.5452 294.277 13.4013 274.481 7.49158 253.199C5.54463 246.188 3.9083 239.101 2.80673 231.895C1.3161 222.139 0.164906 212.262 0.0128009 202.385ZM206.115 349.295C206.292 349.32 206.564 349.432 206.628 349.359C207.012 348.918 207.358 348.443 207.701 347.967C225.942 322.735 244.18 297.503 262.42 272.272C274.601 255.422 286.782 238.572 298.957 221.718C299.185 221.404 299.351 221.047 299.739 220.377C298.968 220.785 298.549 220.988 298.145 221.222C292.841 224.296 287.54 227.373 282.237 230.449C263.699 241.201 245.16 251.949 226.622 262.7C220.535 266.231 214.459 269.777 208.359 273.285C207.641 273.698 206.805 273.906 206.026 274.209C205.706 274.017 205.389 273.822 205.067 273.634C180.312 259.267 155.557 244.901 130.801 230.536C125.546 227.485 120.294 224.429 115.033 221.39C114.551 221.111 114.002 220.945 113.485 220.727C113.509 221.142 113.632 221.313 113.755 221.484C130.301 244.387 146.846 267.291 163.393 290.191C177.63 309.894 191.872 329.595 206.112 349.296L206.115 349.295ZM206.392 50.2748C206.276 50.3565 206.157 50.4365 206.04 50.5182C205.754 50.9681 205.461 51.4132 205.182 51.8679C180.592 91.9452 156.002 132.023 131.416 172.102C125.34 182.008 119.276 191.922 113.208 201.832C112.409 202.84 113.443 203.004 113.944 203.297C120.522 207.143 127.114 210.962 133.704 214.785C152.781 225.857 171.858 236.927 190.935 247.999C195.635 250.727 200.327 253.468 205.038 256.179C205.496 256.443 205.938 257.031 206.602 256.566C207.191 256.333 207.819 256.164 208.363 255.852C212.385 253.548 216.395 251.219 220.404 248.891C230.816 242.84 241.226 236.783 251.638 230.731C258.18 226.928 264.722 223.126 271.268 219.329C276.154 216.495 281.054 213.684 285.937 210.845C290.037 208.463 294.13 206.066 298.21 203.647C298.687 203.363 299.05 202.892 299.466 202.508C299.974 201.7 299.239 201.219 298.917 200.691C292.257 189.776 285.575 178.876 278.889 167.977C267.05 148.677 255.204 129.382 243.364 110.083C231.413 90.6019 219.467 71.1164 207.512 51.639C207.239 51.197 206.858 50.8224 206.529 50.4157C206.521 50.3325 206.476 50.286 206.394 50.2748H206.392Z" fill="#5A7FF2"/>
        <path d="M206.529 50.4157C206.858 50.8224 207.241 51.197 207.512 51.639C219.469 71.1164 231.413 90.6019 243.364 110.083C255.204 129.382 267.05 148.677 278.889 167.977C285.575 178.876 292.257 189.776 298.917 200.691C299.241 201.219 299.974 201.698 299.466 202.508C299.018 202.231 298.592 201.903 298.117 201.685C295.742 200.598 293.357 199.538 290.973 198.473C283.479 195.13 275.981 191.795 268.49 188.446C261.922 185.511 255.364 182.555 248.798 179.62C241.209 176.228 233.614 172.849 226.025 169.461C219.944 166.746 213.866 164.019 207.782 161.31C207.425 161.152 207.017 161.11 206.48 160.975C206.44 161.691 206.384 162.213 206.384 162.735C206.38 193.438 206.38 224.141 206.389 254.845C206.389 255.42 206.529 255.993 206.602 256.568C205.938 257.032 205.496 256.443 205.038 256.181C200.327 253.471 195.636 250.729 190.935 248C171.858 236.929 152.781 225.859 133.704 214.787C127.114 210.964 120.522 207.143 113.944 203.299C113.443 203.006 112.409 202.84 113.208 201.834C114.375 202.258 115.221 201.413 116.138 201.011C120.874 198.938 125.573 196.779 130.293 194.669C137.739 191.342 145.195 188.036 152.64 184.709C160.232 181.316 167.814 177.899 175.406 174.505C184.944 170.241 194.498 166.009 204.024 161.72C206.644 160.54 206.367 160.972 206.367 158.068C206.372 123.032 206.368 87.9969 206.376 52.9615C206.376 52.1129 206.474 51.2643 206.525 50.4157H206.529Z" fill="#BECCFA"/>
        <path d="M206.529 50.4157C206.477 51.2643 206.38 52.1129 206.38 52.9615C206.372 87.9969 206.375 123.032 206.37 158.068C206.37 160.972 206.647 160.54 204.028 161.72C194.501 166.009 184.947 170.239 175.409 174.505C167.817 177.899 160.236 181.316 152.643 184.709C145.198 188.037 137.742 191.342 130.297 194.669C125.576 196.779 120.877 198.936 116.141 201.011C115.224 201.413 114.378 202.257 113.211 201.834C119.281 191.923 125.343 182.009 131.419 172.103C156.006 132.024 180.595 91.9469 205.185 51.8695C205.464 51.4148 205.757 50.9697 206.043 50.5198C206.16 50.4381 206.279 50.3581 206.396 50.2764C206.477 50.2876 206.524 50.3341 206.53 50.4173L206.529 50.4157Z" fill="white"/>
        <path d="M206.604 256.566C206.53 255.992 206.391 255.418 206.391 254.844C206.38 224.141 206.381 193.438 206.386 162.733C206.386 162.211 206.442 161.69 206.482 160.974C207.018 161.108 207.427 161.15 207.784 161.308C213.868 164.018 219.946 166.743 226.027 169.46C233.616 172.849 241.212 176.228 248.799 179.619C255.367 182.555 261.925 185.509 268.491 188.444C275.983 191.792 283.479 195.129 290.974 198.472C293.358 199.535 295.744 200.596 298.118 201.684C298.594 201.901 299.02 202.23 299.468 202.507C299.052 202.891 298.688 203.363 298.211 203.645C294.133 206.064 290.039 208.461 285.939 210.844C281.055 213.682 276.156 216.494 271.269 219.328C264.722 223.124 258.182 226.927 251.64 230.729C241.228 236.781 230.819 242.838 220.405 248.889C216.398 251.219 212.389 253.547 208.365 255.851C207.821 256.163 207.193 256.329 206.604 256.565V256.566Z" fill="#7B99F5"/>
        <path d="M206.029 274.211C206.809 273.908 207.644 273.7 208.362 273.287C214.462 269.779 220.538 266.232 226.626 262.702C245.163 251.95 263.701 241.201 282.24 230.451C287.543 227.375 292.844 224.296 298.149 221.223C298.551 220.99 298.97 220.786 299.742 220.378C299.354 221.049 299.188 221.406 298.96 221.72C286.784 238.573 274.603 255.423 262.423 272.273C244.183 297.505 225.944 322.737 207.704 347.969C207.361 348.444 207.015 348.92 206.631 349.36C206.569 349.432 206.295 349.322 206.119 349.296C206.203 348.779 206.365 348.263 206.365 347.746C206.378 323.851 206.38 299.958 206.362 276.063C206.362 275.445 206.147 274.829 206.032 274.211H206.029Z" fill="#BECCFA"/>
        <path d="M206.029 274.211C206.144 274.829 206.359 275.445 206.359 276.063C206.376 299.958 206.375 323.851 206.362 347.746C206.362 348.263 206.202 348.779 206.115 349.296C191.875 329.595 177.633 309.894 163.396 290.191C146.849 267.291 130.305 244.387 113.759 221.484C113.635 221.313 113.512 221.142 113.488 220.727C114.005 220.945 114.553 221.111 115.036 221.39C120.298 224.429 125.549 227.485 130.804 230.536C155.559 244.902 180.315 259.267 205.07 273.634C205.392 273.822 205.71 274.017 206.029 274.209V274.211Z" fill="#FEFFFF"/>
        <path d="M183.609 0.57483C184.902 0.475562 186.196 0.377894 187.491 0.278625C186.198 0.377894 184.904 0.475562 183.609 0.57483Z" fill="#BFB0F7"/>
        <path d="M213.063 0.281799C214.251 0.374664 215.44 0.469129 216.63 0.561993C215.442 0.469129 214.252 0.374664 213.063 0.281799Z" fill="#C5B5F8"/>
        <path d="M218.526 398.954C217.45 399.052 216.374 399.15 215.296 399.247C216.372 399.15 217.448 399.052 218.526 398.954Z" fill="#96CBF9"/>
    </g>
    <defs>
        <clipPath id="clip0_28_876">
            <rect width="400" height="399.931" fill="white"/>
        </clipPath>
    </defs>
</svg>
