<?xml version="1.0" encoding="UTF-8"?>
<svg version="1.1" xmlns="http://www.w3.org/2000/svg" width="1000" height="1002">
<path d="M0 0 C1.37998743 -0.01148238 2.75993176 -0.03187501 4.13964844 -0.06152344 C12.25407747 -0.23574472 18.5696776 -0.37055027 25.39575195 4.29516602 C27.34887695 6.18969727 27.34887695 6.18969727 28.64575195 8.10766602 C29.35538086 9.15374023 29.35538086 9.15374023 30.0793457 10.22094727 C30.7309668 11.24768555 30.7309668 11.24768555 31.39575195 12.29516602 C31.79922852 12.8868457 32.20270508 13.47852539 32.6184082 14.08813477 C35.30521056 18.29649544 36.56652515 22.33311516 36.39575195 27.29516602 C35.12837647 32.37752071 33.15919905 37.21498028 31.28833008 42.09985352 C30.92288086 43.10790039 30.55743164 44.11594727 30.1809082 45.15454102 C29.83938721 46.04625 29.49786621 46.93795898 29.14599609 47.85668945 C27.23830541 56.59990961 28.47015642 65.90801338 29.27075195 74.74829102 C29.35953613 75.77452576 29.44832031 76.8007605 29.53979492 77.85809326 C29.82029132 81.08756064 30.10788725 84.31634798 30.39575195 87.54516602 C30.58893342 89.75476012 30.78164584 91.96439528 30.97387695 94.17407227 C31.44242351 99.54825597 31.91677663 104.92190226 32.39575195 110.29516602 C32.77159424 109.59359375 33.14743652 108.89202148 33.53466797 108.16918945 C34.06761475 107.17435547 34.60056152 106.17952148 35.1496582 105.15454102 C36.04890015 103.47593994 36.04890015 103.47593994 36.96630859 101.76342773 C38.31310355 99.24940489 39.6599524 96.73541093 41.00683594 94.22143555 C44.41858981 87.85324604 47.82983211 81.48478414 51.23950195 75.11547852 C54.95575577 68.17403514 58.67462173 61.23399648 62.39575195 54.29516602 C62.88032867 53.39142242 62.88032867 53.39142242 63.37469482 52.46942139 C65.62960021 48.26436508 67.88713051 44.06072755 70.14575195 39.85766602 C70.73042236 38.76760254 71.31509277 37.67753906 71.91748047 36.55444336 C72.46202881 35.5420459 73.00657715 34.52964844 73.56762695 33.48657227 C74.04296875 32.60171143 74.51831055 31.71685059 75.00805664 30.80517578 C76.41287547 28.26419366 77.88704165 25.7756305 79.39575195 23.29516602 C98.61545907 26.02502845 116.31309071 43.25352592 127.55810547 57.91064453 C155.90846552 96.15754461 157.39575195 138.86635738 157.39575195 185.29516602 C55.09575195 185.29516602 -47.20424805 185.29516602 -152.60424805 185.29516602 C-152.60424805 130.80708432 -152.60424805 130.80708432 -146.91674805 111.73266602 C-146.66328613 110.86826904 -146.40982422 110.00387207 -146.14868164 109.11328125 C-136.31887182 76.87303817 -115.67528879 47.69301256 -87.72924805 28.67016602 C-87.11082031 28.24396973 -86.49239258 27.81777344 -85.85522461 27.37866211 C-82.07027254 24.89459541 -79.04623303 23.90347572 -74.60424805 23.29516602 C-74.24298828 23.96757324 -73.88172852 24.63998047 -73.50952148 25.33276367 C-71.79179916 28.52894252 -70.07319826 31.72464737 -68.35424805 34.92016602 C-68.03613159 35.511604 -67.71801514 36.10304199 -67.39025879 36.71240234 C-63.24170203 44.42332369 -59.06557295 52.11831032 -54.85424805 59.79516602 C-48.66209757 71.0910324 -42.65858455 82.48661797 -36.65795898 93.88500977 C-36.27972488 94.60228745 -35.90149078 95.31956512 -35.51179504 96.05857849 C-34.80067645 97.40726598 -34.09070939 98.75656154 -33.38212585 100.10658264 C-31.55570488 103.56881942 -29.65420637 106.96026574 -27.60424805 110.29516602 C-27.02722742 103.82200574 -26.45850259 97.34815316 -25.89526367 90.8737793 C-25.70311728 88.67602439 -25.50914324 86.4784284 -25.31323242 84.28100586 C-25.03030492 81.1038455 -24.7541791 77.92615217 -24.47924805 74.74829102 C-24.34800537 73.29909271 -24.34800537 73.29909271 -24.21411133 71.82061768 C-23.28006861 60.85618717 -22.86389693 51.57408932 -27.10424805 41.29516602 C-30.4387575 32.37791087 -33.19434854 24.99338709 -29.04174805 15.85766602 C-21.88090274 2.72155788 -14.40276421 0.0833513 0 0 Z " fill="#FFFFFF" transform="translate(497.604248046875,323.704833984375)"/>
<path d="M0 0 C9.24 0 18.48 0 28 0 C28.00410889 2.03373779 28.00821777 4.06747559 28.01245117 6.1628418 C28.02966224 12.88851092 28.07418621 19.61380053 28.13209057 26.33923626 C28.16635603 30.41625486 28.19146976 34.49289895 28.19555664 38.57006836 C28.1998407 42.50616084 28.22831076 46.44140856 28.27343178 50.37723732 C28.28640361 51.87745045 28.29071551 53.37776469 28.28615379 54.87802696 C28.28124482 56.98300315 28.30734475 59.08551298 28.34057617 61.19018555 C28.34723801 62.38709518 28.35389984 63.58400482 28.36076355 64.81718445 C29.18083581 68.90039769 30.83677218 70.38389359 34 73 C37.12735294 74.56367647 40.46814235 74.15707495 43.90234375 74.17578125 C45.53191352 74.19901007 47.16147081 74.22312858 48.79101562 74.24804688 C51.35139951 74.28291354 53.91133335 74.31236137 56.47192383 74.32592773 C71.31326831 74.41988774 83.64308575 76.24675764 94.9375 86.8125 C103.67162615 96.14897967 107.43262117 108.78041401 112.00439453 120.48046875 C112.69069909 122.21726696 113.39042781 123.94880017 114.10107422 125.67578125 C114.45830566 126.54589844 114.81553711 127.41601562 115.18359375 128.3125 C115.5077124 129.09238281 115.83183105 129.87226562 116.16577148 130.67578125 C120.05788365 141.51947684 118.63465935 153.64017323 114 164 C109.69096775 171.80822437 103.60925828 177.71582783 97.25 183.875 C95.35573836 185.72290525 93.46659458 187.57584431 91.578125 189.4296875 C90.74700195 190.23647949 89.91587891 191.04327148 89.05957031 191.87451172 C86.54765834 194.46681917 85.10837739 196.18716954 84.625 199.8125 C85.5537293 207.70669909 93.00777046 213.3301821 98.33203125 218.66796875 C99.24200363 219.58459793 100.15197601 220.50122711 101.08952332 221.44563293 C103.01000577 223.37803914 104.93452447 225.30631974 106.86157227 227.23217773 C109.3195158 229.6899178 111.76339316 232.16114774 114.203969 234.63611889 C116.55011523 237.0099514 118.91068593 239.36925528 121.26953125 241.73046875 C122.13955276 242.6148613 123.00957428 243.49925385 123.90596008 244.41044617 C130.07703441 250.69463862 130.07703441 250.69463862 138 254 C143.38841476 252.51657193 146.52494608 249.91672197 150.29296875 245.88671875 C151.26340822 244.87539798 152.23412028 243.86433872 153.20507812 242.85351562 C154.69326767 241.27903303 156.17598824 239.69985965 157.65258789 238.11450195 C167.00921253 228.12209663 176.64599912 221.09744669 190.69873047 220.60522461 C200.72327324 220.44136369 207.74383677 221.61989423 216.84765625 226.01123047 C219.36500655 227.16768109 221.92029021 228.18178245 224.5 229.19140625 C225.47018066 229.57304932 226.44036133 229.95469238 227.43994141 230.34790039 C229.34175707 231.09442078 231.24499644 231.83732837 233.14990234 232.57592773 C244.64612964 237.19970576 254.81475659 243.90571562 260.375 255.375 C263.29081976 263.11570274 264.13980918 270.87957449 264.23828125 279.1171875 C264.24718384 279.8283371 264.25608643 280.53948669 264.26525879 281.27218628 C264.29483527 284.22425788 264.31469761 287.17570378 264.30541992 290.12792969 C264.30279981 292.31262936 264.33086362 294.49526489 264.36328125 296.6796875 C264.36775269 298.60917236 264.36775269 298.60917236 264.37231445 300.57763672 C265.15561189 304.848451 266.68122127 306.29771365 270 309 C272.78153095 310.39076547 275.07813104 310.15035883 278.19042969 310.17700195 C279.4922821 310.18983719 280.79413452 310.20267242 282.13543701 310.21589661 C283.56424581 310.22406499 284.99305891 310.23150853 286.421875 310.23828125 C287.14070107 310.24235678 287.85952713 310.2464323 288.6001358 310.25063133 C292.40659803 310.27149602 296.21302419 310.28579459 300.01953125 310.29516602 C303.94489137 310.3062168 307.86968246 310.34059933 311.79484177 310.38033772 C314.81810534 310.406531 317.84123408 310.41486033 320.86460114 310.41844749 C322.31104617 310.42330842 323.75748537 310.43490848 325.20381927 310.45348549 C327.23307053 310.47792431 329.2625988 310.47448748 331.29199219 310.4699707 C332.44511902 310.47583694 333.59824585 310.48170319 334.78631592 310.48774719 C338.72211375 309.89040337 340.90391692 308.45464332 344 306 C345.47266403 303.05467194 345.17687696 300.05520135 345.2109375 296.82421875 C345.23906054 295.34048479 345.26772517 293.85676102 345.296875 292.37304688 C345.33769901 290.04777927 345.37459486 287.72269066 345.40136719 285.3972168 C345.59902689 269.57932856 347.14557435 255.67448476 358 243.3125 C373.84417246 228.72096511 402.56796021 220.04084479 423.59960938 220.82080078 C438.11395641 221.90435761 447.60538044 233.3443341 457.01464844 243.20654297 C458.36786852 244.62040488 459.73458211 246.02131272 461.1015625 247.421875 C461.89900879 248.25299805 462.69645508 249.08412109 463.51806641 249.94042969 C466.40462189 252.33576532 468.29151745 253.37661871 472 254 C479.40956883 252.25035538 484.05090844 246.49105559 489.23828125 241.22265625 C490.20924439 240.24930504 491.18095228 239.27669625 492.15336609 238.30479431 C494.18086443 236.27418088 496.2015069 234.2370681 498.21704102 232.19458008 C500.79697952 229.58057288 503.38997962 226.98001629 505.98775959 224.38375187 C507.99152244 222.37944468 509.99002722 220.36996394 511.98680687 218.35870171 C513.40402578 216.93205642 514.8242213 215.50837008 516.24446106 214.08473206 C517.10262924 213.21380417 517.96079742 212.34287628 518.8449707 211.44555664 C519.60107132 210.68183243 520.35717194 209.91810822 521.13618469 209.13124084 C523.75855905 206.13260073 524.88489235 203.98423508 525.34765625 200.02734375 C524.92269257 196.32681731 524.00707253 195.21725173 521.4375 192.5625 C520.21933594 191.28052734 520.21933594 191.28052734 518.9765625 189.97265625 C516.76818996 187.74515367 514.52280022 185.55711825 512.2734375 183.37109375 C500.4630632 171.86231077 492.20405487 161.82280949 491.5625 144.625 C491.91941168 132.46144982 497.289356 121.51975909 502.0625 110.53125 C503.64784985 106.8746193 505.05067757 103.174216 506.4375 99.4375 C510.33729572 90.06223353 518.10028177 82.16506162 527.3215332 77.93505859 C536.80128697 74.33446512 545.88795498 74.46280795 555.875 74.5 C559.16463861 74.51209426 562.45268805 74.49831702 565.7421875 74.46875 C566.48290497 74.48006958 567.22362244 74.49138916 567.98678589 74.50305176 C573.12637937 74.45317929 576.04735496 73.25306856 580 70 C581.42238392 67.15523215 581.16424558 64.71127112 581.20532227 61.53076172 C581.22017166 60.53545944 581.22017166 60.53545944 581.23532104 59.52005005 C581.26694916 57.32329903 581.29169854 55.12652637 581.31640625 52.9296875 C581.33697466 51.40796339 581.3579711 49.886245 581.37937927 48.36453247 C581.43461171 44.3565535 581.48401578 40.34852287 581.53222656 36.3404541 C581.58243305 32.25166213 581.63812356 28.16294532 581.69335938 24.07421875 C581.8009553 16.04954094 581.90189038 8.0247994 582 0 C590.91 0 599.82 0 609 0 C610.38040059 2.76080118 610.14249299 5.00537501 610.16113281 8.09521484 C610.17074036 9.37770111 610.1803479 10.66018738 610.19024658 11.98153687 C610.19509843 13.39133526 610.19937631 14.80113574 610.203125 16.2109375 C610.20888094 17.6590678 610.21463861 19.10719809 610.22039795 20.55532837 C610.23091749 23.60020298 610.23675191 26.64505117 610.24023438 29.68994141 C610.24567947 33.56080223 610.26961656 37.43130418 610.29820633 41.30205345 C610.317 44.29982453 610.3220474 47.29751271 610.32357025 50.29533768 C610.32656676 51.72005775 610.33449164 53.14477745 610.34775543 54.56943893 C610.46882698 68.59059955 608.96918634 81.78932317 598.80859375 92.2578125 C587.28243004 102.28538992 574.69614686 102.55419528 560.1875 102.5 C556.90957933 102.48788671 553.6332506 102.50173506 550.35546875 102.53125 C549.61991257 102.51993042 548.88435638 102.50861084 548.12651062 102.49694824 C542.67666163 102.54983699 539.50699826 103.91515782 535 107 C532.13823799 110.71204163 530.74772221 115.05510337 529.1875 119.4375 C527.66753609 123.65006856 526.13025438 127.81527615 524.2421875 131.87890625 C519.96003232 140.67941084 519.96003232 140.67941084 521 150 C522.9445527 152.82865928 522.9445527 152.82865928 525 155 C525 155.66 525 156.32 525 157 C525.928125 157.37125 525.928125 157.37125 526.875 157.75 C529.40358627 159.23740369 529.71839004 160.43678009 531 163 C532.3153341 163.70151152 533.65117592 164.36525925 535 165 C537.25 167 537.25 167 539 169 C539 169.66 539 170.32 539 171 C539.87978516 171.35384766 539.87978516 171.35384766 540.77734375 171.71484375 C546.56112518 175.05906887 550.76046815 182.92817564 552.5625 189.2578125 C554.48092321 201.28221515 553.85578028 212.34521486 546.59765625 222.43823242 C542.23285546 228.21584152 537.08184266 233.24683687 531.9765625 238.359375 C530.90556935 239.43681004 529.83472035 240.51438838 528.76400757 241.59210205 C526.53011751 243.83789781 524.29220383 246.07959318 522.05175781 248.31884766 C519.19491 251.17549176 516.35210422 254.04568342 513.51259804 256.91955185 C511.3094454 259.14502916 509.09717307 261.36126836 506.88230515 263.57508087 C505.83060578 264.62912457 504.78211077 265.68637647 503.7370491 266.74700165 C494.33470307 276.27627737 485.77720415 281.81566346 472.125 282.3125 C456.64985466 281.92802434 447.70454935 274.14425168 437.4375 263.4375 C428.40805899 253.28639845 428.40805899 253.28639845 416.2109375 248.484375 C410.92547695 248.77447731 406.36588072 251.05820152 401.625 253.25 C399.84688997 254.04806985 398.06824523 254.84494944 396.2890625 255.640625 C394.98437012 256.23194214 394.98437012 256.23194214 393.65332031 256.83520508 C390.18053445 258.35974146 386.65397658 259.72482225 383.10693359 261.06616211 C379.91224287 262.48211715 378.0746091 264.21224402 376 267 C374.20399969 272.11452446 373.71912245 276.83445337 373.7265625 282.20703125 C373.70626924 283.77930394 373.68541837 285.35156951 373.6640625 286.92382812 C373.64154546 289.36570287 373.62501252 291.80729399 373.61914062 294.24926758 C373.56328142 308.07302407 372.04743025 318.63486445 362 329 C351.26146679 338.1417253 339.28434455 338.46625986 325.8203125 338.43359375 C324.15941151 338.43816528 322.4985124 338.44347371 320.83761597 338.44947815 C317.36969278 338.45837149 313.90200033 338.45602998 310.43408203 338.44604492 C306.02074024 338.43456719 301.60820007 338.45476741 297.19496346 338.48396206 C293.7682501 338.5024335 290.34172493 338.50200987 286.91497421 338.49632454 C285.28930411 338.49617262 283.66362019 338.50210822 282.0379982 338.51461601 C269.39363699 338.5982107 257.99525381 337.48510649 247.96875 328.984375 C241.23886018 322.20107336 236.73018706 313.6511407 236.58459473 303.98817444 C236.58761597 303.29211594 236.59063721 302.59605743 236.59375 301.87890625 C236.57749573 300.76261086 236.57749573 300.76261086 236.56091309 299.62376404 C236.52698335 297.2699196 236.51113257 294.91655547 236.5 292.5625 C236.58056415 278.98706449 236.58056415 278.98706449 233 266 C232.67 265.01 232.34 264.02 232 263 C229.90492448 261.93887471 229.90492448 261.93887471 227 261 C225.48195665 260.40456656 223.96658815 259.80229346 222.453125 259.1953125 C221.6075 258.85886719 220.761875 258.52242187 219.890625 258.17578125 C219.01921875 257.82902344 218.1478125 257.48226563 217.25 257.125 C216.3940625 256.78597656 215.538125 256.44695312 214.65625 256.09765625 C209.70385493 254.12420185 204.82583841 252.05588855 199.99902344 249.79101562 C196.53583228 248.42062733 193.62710907 248.09278169 190 249 C181.34808565 253.39433928 175.03224193 260.80383217 168.4609375 267.74414062 C159.75408273 276.72729652 151.32637697 281.76595397 138.6875 282.3125 C122.34100518 281.82752546 112.58801258 273.06325231 101.578125 262.01171875 C100.50473424 260.94290102 99.43097629 259.87445194 98.35687256 258.80635071 C96.11975379 256.57811198 93.88832206 254.34436556 91.66064453 252.10668945 C88.82263929 249.25718195 85.96905775 246.42387049 83.11076736 243.59472942 C80.89361453 241.39602426 78.68595612 239.18797102 76.48085785 236.97718239 C75.43307979 235.92925227 74.38224645 234.88436679 73.32816315 233.84277916 C64.39021365 224.9959891 56.90092703 216.13098924 56.61914062 202.98657227 C56.66534633 185.84233033 63.45126574 176.37780784 75.3359375 164.3984375 C77 163 77 163 79 163 C79.2475 162.38125 79.495 161.7625 79.75 161.125 C81.23740369 158.59641373 82.43678009 158.28160996 85 157 C86.15922128 155.26857146 86.15922128 155.26857146 87 153 C87.556875 151.906875 88.11375 150.81375 88.6875 149.6875 C91.23988589 142.51651108 88.25217316 136.73737535 85.1875 130.25 C82.45087267 124.29610159 79.89902974 118.3756483 77.7890625 112.1640625 C76.24649622 107.55484573 76.24649622 107.55484573 72.5 104.8125 C71.675 104.544375 70.85 104.27625 70 104 C69.34 103.67 68.68 103.34 68 103 C65.34729882 102.87925275 62.71640049 102.81430492 60.0625 102.7890625 C58.42837596 102.7609615 56.79426153 102.73229688 55.16015625 102.703125 C52.59098923 102.66211986 50.02199539 102.62522767 47.45263672 102.59863281 C33.28871584 102.43939509 22.18698236 101.6386111 11 92 C2.74755378 83.46420799 -0.13513286 72.70148123 -0.11352539 61.07666016 C-0.11367142 60.4125412 -0.11381744 59.74842224 -0.1139679 59.06417847 C-0.11327634 56.88910551 -0.10551973 54.71412032 -0.09765625 52.5390625 C-0.09578938 51.02306159 -0.09436675 49.50706008 -0.09336853 47.99105835 C-0.08956456 44.01595369 -0.07975253 40.04088602 -0.06866455 36.0657959 C-0.0584047 32.00350444 -0.05386114 27.94120696 -0.04882812 23.87890625 C-0.03812822 15.91925203 -0.02054874 7.95963489 0 0 Z " fill="#FFFFFF" transform="translate(195,525)"/>
<path d="M0 0 C3.49883415 2.84606658 6.78463961 5.83831841 10 9 C10.69996094 9.68707031 11.39992188 10.37414062 12.12109375 11.08203125 C27.33591969 27.06797897 34.48784224 49.46802804 34.1484375 71.2578125 C32.90222653 94.27992041 24.45385552 115.60581131 7.3359375 131.46875 C-13.71824398 149.26101604 -36.92314129 155.09953136 -64 153 C-81.48067399 150.7311857 -97.72899648 142.59392467 -110 130 C-110.86625 129.195625 -111.7325 128.39125 -112.625 127.5625 C-126.45469536 112.64098659 -135.12695979 94.57338231 -136 74 C-136.03996094 73.17757812 -136.07992188 72.35515625 -136.12109375 71.5078125 C-136.70988784 47.60969931 -127.90421595 26.44912883 -112.06640625 8.8515625 C-83.36715447 -21.29131362 -33.11975261 -24.76385172 0 0 Z " fill="#FFFFFF" transform="translate(551,153)"/>
<path d="M0 0 C1.25697189 -0.00807175 2.51394379 -0.01614349 3.80900574 -0.02445984 C6.46930585 -0.03826554 9.12948368 -0.04928955 11.78979492 -0.05688477 C14.48078483 -0.06568307 17.17124796 -0.08641975 19.86206055 -0.1184082 C58.09401362 -0.53947014 58.09401362 -0.53947014 74.04296875 9.23828125 C73.40318372 13.30691419 71.20360649 16.39221618 69.04296875 19.80078125 C46.15392934 57.08724348 43.14232354 93.26408946 42.04296875 137.23828125 C-0.52703125 137.23828125 -43.09703125 137.23828125 -86.95703125 137.23828125 C-87.03953125 126.67828125 -87.12203125 116.11828125 -87.20703125 105.23828125 C-87.24344727 101.93828125 -87.27986328 98.63828125 -87.31738281 95.23828125 C-87.32908424 92.57162116 -87.3392726 89.90495383 -87.34765625 87.23828125 C-87.35810974 86.57022461 -87.36856323 85.90216797 -87.3793335 85.21386719 C-87.5761551 71.93929958 -85.60518368 58.74538059 -79.20703125 46.92578125 C-78.86341553 46.26827881 -78.5197998 45.61077637 -78.16577148 44.93334961 C-67.64166129 25.30160592 -51.33385587 11.21100082 -30.1953125 3.9453125 C-19.92186058 0.92114015 -10.66395246 0.06575686 0 0 Z " fill="#FFFFFF" transform="translate(282.95703125,371.76171875)"/>
<path d="M0 0 C1.26504364 -0.00570007 2.53008728 -0.01140015 3.83346558 -0.01727295 C6.50457338 -0.02669267 9.17556972 -0.03360489 11.84667969 -0.03710938 C15.22843506 -0.0425692 18.6097828 -0.06656733 21.99141121 -0.09508133 C25.26507523 -0.11846859 28.53876426 -0.12017443 31.8125 -0.125 C33.00569855 -0.1373468 34.19889709 -0.1496936 35.42825317 -0.16241455 C58.17288308 -0.10328244 79.24329503 8.66434863 95.8046875 24.203125 C125.91754854 55.831406 119.8046875 93.62932904 119.8046875 137.203125 C77.2346875 137.203125 34.6646875 137.203125 -9.1953125 137.203125 C-9.5253125 124.003125 -9.8553125 110.803125 -10.1953125 97.203125 C-12.95115905 69.20952583 -20.19540963 38.18978702 -36.2578125 14.453125 C-38.1953125 11.203125 -38.1953125 11.203125 -37.81640625 8.5 C-37.61144531 7.74203125 -37.40648437 6.9840625 -37.1953125 6.203125 C-34.69792392 5.38177511 -32.19786445 4.57096752 -29.6953125 3.765625 C-28.99921875 3.53552734 -28.303125 3.30542969 -27.5859375 3.06835938 C-26.88984375 2.84599609 -26.19375 2.62363281 -25.4765625 2.39453125 C-24.84814453 2.19029541 -24.21972656 1.98605957 -23.57226562 1.77563477 C-15.80244273 -0.09579443 -7.9452114 0.02801373 0 0 Z " fill="#FFFFFF" transform="translate(684.1953125,371.796875)"/>
<path d="M0 0 C9.24 0 18.48 0 28 0 C27 10 27 10 26.45019531 13.68652344 C21.1410173 52.76253425 32.08602281 93.71361935 55.74609375 125.15234375 C83.32117685 159.99157352 120.15376719 181.17608909 164.40234375 186.5546875 C202.4028617 190.61099079 242.20796608 178.69907364 272.2734375 155.23828125 C276.66236683 151.63533496 280.87600076 147.90295794 285 144 C286.40185547 142.71222656 286.40185547 142.71222656 287.83203125 141.3984375 C313.03040173 117.72446431 330.67896785 81.34287547 332.14526367 46.5534668 C332.17018131 42.59799343 332.19157649 38.6430508 332.1875 34.6875 C332.1882251 33.97634033 332.1889502 33.26518066 332.18969727 32.5324707 C332.18845753 21.5471587 331.55510589 10.88574123 330 0 C339.24 0 348.48 0 358 0 C365.662314 49.80504103 356.41913151 98.60829707 327 140 C323.5598264 144.53983536 319.82049922 148.77947885 316 153 C315.26394531 153.8559375 314.52789063 154.711875 313.76953125 155.59375 C298.92223669 172.68571751 281.0352487 185.60850726 261 196 C260.10861328 196.46913818 260.10861328 196.46913818 259.19921875 196.94775391 C243.97647736 204.8586852 226.91144788 210.21088781 210 213 C208.19595703 213.30550781 208.19595703 213.30550781 206.35546875 213.6171875 C161.0376576 220.47560843 111.91342895 209.73339383 74.5 182.9375 C72.30937829 181.31979099 70.15487435 179.66611213 68 178 C67.09507812 177.31808594 66.19015625 176.63617187 65.2578125 175.93359375 C34.84228246 152.15171789 12.81270143 118.28984051 3 81 C2.80180664 80.25637207 2.60361328 79.51274414 2.39941406 78.74658203 C-4.27458127 52.90032522 -4.03299176 26.21444647 0 0 Z " fill="#FFFFFF" transform="translate(321,525)"/>
<path d="M0 0 C15.20006278 10.28487083 25.88371805 26.34386068 30.23242188 44.12695312 C33.67844026 64.01757394 30.99245058 84.09286514 19.76367188 101.19335938 C8.37647271 117.21272246 -7.94329697 128.08200873 -27.43554688 131.72460938 C-47.45695934 134.19384832 -67.10767328 130.86586298 -83.67382812 118.75585938 C-85.54739382 117.25898943 -87.40399028 115.74042307 -89.23632812 114.19335938 C-89.89117188 113.65195312 -90.54601562 113.11054688 -91.22070312 112.55273438 C-104.25795231 100.7115631 -111.50454776 82.48301357 -112.45507812 65.22070312 C-113.07668173 44.55473768 -106.7305364 25.99942456 -93.23632812 10.19335938 C-82.59617433 0.2882162 -71.29046853 -6.17598769 -57.23632812 -9.80664062 C-56.62829346 -9.98171143 -56.02025879 -10.15678223 -55.39379883 -10.3371582 C-36.56740598 -14.43392786 -16.10415029 -10.07159453 0 0 Z " fill="#FFFFFF" transform="translate(734.236328125,225.806640625)"/>
<path d="M0 0 C1.1456543 0.00829834 2.29130859 0.01659668 3.47167969 0.02514648 C12.02701391 0.1958401 19.24754442 1.06050623 27.1875 4.4375 C28.93160156 5.1490625 28.93160156 5.1490625 30.7109375 5.875 C39.79270096 9.97262863 46.28502264 15.38025857 53.1875 22.4375 C53.85394531 23.07171875 54.52039063 23.7059375 55.20703125 24.359375 C67.53100506 36.933723 72.46191168 55.97313784 72.43408203 73.03271484 C72.10081512 93.10633953 64.37603585 109.69489927 50.7421875 124.00390625 C35.48677245 138.49900318 16.70206483 144.07327795 -3.98046875 143.70703125 C-23.46535003 142.91515319 -40.48077963 134.07493225 -53.984375 120.20703125 C-58.13693049 115.40262112 -61.22848933 110.18129012 -64.125 104.5625 C-64.45072998 103.93915771 -64.77645996 103.31581543 -65.11206055 102.67358398 C-69.98643171 92.72581011 -71.35276873 82.53917899 -71.25 71.5625 C-71.24242676 70.42280762 -71.23485352 69.28311523 -71.22705078 68.10888672 C-71.06056862 59.59399242 -70.17038715 52.34209149 -66.8125 44.4375 C-66.15894531 42.87902344 -66.15894531 42.87902344 -65.4921875 41.2890625 C-62.21520972 34.17999049 -57.99846768 28.27425579 -52.8125 22.4375 C-52.25820312 21.80070312 -51.70390625 21.16390625 -51.1328125 20.5078125 C-38.07651534 6.4519902 -18.76409265 -0.17568857 0 0 Z " fill="#FFFFFF" transform="translate(305.8125,214.5625)"/>
<path d="M0 0 C330 0 660 0 1000 0 C1000 0.99 1000 1.98 1000 3 C670 3 340 3 0 3 C0 2.01 0 1.02 0 0 Z " fill="#FFFFFF" transform="translate(0,999)"/>
</svg>
